<?xml version="1.0" encoding="utf-8"?>
<!-- Generator: Adobe Illustrator 19.0.0, SVG Export Plug-In . SVG Version: 6.00 Build 0)  -->
<svg version="1.1" id="Layer_1" xmlns="http://www.w3.org/2000/svg" xmlns:xlink="http://www.w3.org/1999/xlink" x="0px" y="0px"
	 viewBox="-338 240.7 121.3 121.3" style="enable-background:new -338 240.7 121.3 121.3;" xml:space="preserve">
<style type="text/css">
	.st0{clip-path:url(#SVGID_2_);}
	.st1{fill:#7D402D;}
	.st2{fill:#A95947;}
	.st3{fill:#B76C54;}
	.st4{fill:#C68978;}
	.st5{fill:#002C5D;}
	.st6{fill:#FFF5F5;}
	.st7{fill:#E3F0FB;}
	.st8{fill:#533022;}
	.st9{fill:#D98800;}
	.st10{fill:#FCB30B;}
	.st11{fill:#463B83;}
</style>
<g>
	<defs>
		<circle id="SVGID_1_" cx="-277.4" cy="301.4" r="60.6"/>
	</defs>
	<clipPath id="SVGID_2_">
		<use xlink:href="#SVGID_1_"  style="overflow:visible;"/>
	</clipPath>
	<g class="st0">
		<path class="st1" d="M-247.4,291.7v2.4c0,15.5-12.6,28.1-28.1,28.1h-3.6c-15.5,0-28.1-12.6-28.1-28.1v-2.4
			c0-15.5,12.6-28.1,28.1-28.1h3.6C-260,263.5-247.4,276.1-247.4,291.7z"/>
		<path class="st2" d="M-309.2,349c-3.4-2.2-3.9-7-0.9-9.8c3-2.8,7-4.5,11.4-4.5h42.7c7,0,13.1,4.4,15.5,10.6
			c-10,8.2-22.9,13.2-36.9,13.2C-289.1,358.5-300,355-309.2,349z"/>
		<path class="st3" d="M-244.1,339.8c2.5,2.6,2.1,6.8-0.9,8.8c-9.3,6.2-20.4,9.8-32.4,9.8c-11.3,0-21.9-3.2-30.8-8.8
			c0.8-8.4,7.9-14.9,16.5-14.9h7.1v-5.1c0-0.4-0.2-0.7-0.6-0.8c-10.7-3.3-18.4-13.2-18.4-25v-9.5c0-14.4,11.7-26.1,26.1-26.1
			s26.1,11.7,26.1,26.1v4.7c3.3,0,5.9,2.7,5.9,5.9v2.4c0,3.3-2.7,5.9-5.9,5.9c-0.6,0-1.2-0.1-1.7-0.2c-2.9,7.7-9.3,13.6-17.3,15.9
			v5.7h14.2C-251.3,334.8-247.1,336.7-244.1,339.8z"/>
		<path class="st4" d="M-251.2,294.4v9.5c0,12.1-8.2,22.2-19.3,25.2c-2.1,0.6-4.4,0.6-6.5,0c-11.1-3-19.3-13.2-19.3-25.2v-9.5
			c0-13.2,9.8-24.1,22.6-25.9C-261.1,270.3-251.2,281.2-251.2,294.4z"/>
		<path class="st5" d="M-285.1,296.2c0,2-1.6,3.6-3.6,3.6s-3.6-1.6-3.6-3.6s1.6-3.6,3.6-3.6S-285.1,294.2-285.1,296.2z
			 M-266.1,292.6c-2,0-3.6,1.6-3.6,3.6s1.6,3.6,3.6,3.6s3.6-1.6,3.6-3.6S-264.1,292.6-266.1,292.6z"/>
		<path class="st6" d="M-284.5,294.4c0,1-0.8,1.8-1.8,1.8c-1,0-1.8-0.8-1.8-1.8c0-1,0.8-1.8,1.8-1.8
			C-285.3,292.6-284.5,293.4-284.5,294.4z M-263.7,292.6c-1,0-1.8,0.8-1.8,1.8c0,1,0.8,1.8,1.8,1.8c1,0,1.8-0.8,1.8-1.8
			C-261.9,293.4-262.7,292.6-263.7,292.6z"/>
		<path class="st6" d="M-277.4,320.5c-3.9,0-7.1-3.2-7.1-7.1c0-1,0.8-1.8,1.8-1.8h10.7c1,0,1.8,0.8,1.8,1.8
			C-270.2,317.3-273.4,320.5-277.4,320.5z"/>
		<path class="st7" d="M-275.6,320.3c-0.6,0.1-1.2,0.2-1.8,0.2c-3.9,0-7.1-3.2-7.1-7.1c0-1,0.8-1.8,1.8-1.8h3.6
			c-1,0-1.8,0.8-1.8,1.8C-280.9,316.7-278.6,319.5-275.6,320.3z"/>
		<path class="st2" d="M-280.8,306c-0.7-0.7-0.7-1.8,0-2.5c0.7-0.7,1.8-0.7,2.5,0c0.2,0.2,0.6,0.4,0.9,0.4c0.3,0,0.7-0.1,0.9-0.4
			c0.7-0.7,1.8-0.7,2.5,0c0.7,0.7,0.7,1.8,0,2.5c-0.9,0.9-2.1,1.4-3.4,1.4C-278.7,307.4-279.9,306.9-280.8,306L-280.8,306z"/>
		<path class="st1" d="M-247.4,291.4c-8.4,1.8-17.6-0.5-24.1-7c0,0-9.6-10-10.7-11.9c-5.6,6-9.1,14.4-9.1,23.7v11.9
			c0,8.8,3.1,16.8,8.2,22.7c0.3,0.3,0,0.8-0.4,0.8c-15.3-1-27.5-15.2-27.5-32.6v-2.8c0-15,9-27.6,21.3-31.5c-0.4-0.9-0.6-2-0.6-3.5
			c0,0,0-0.1,0-0.1c0-6.6,5.8-11.9,13.1-11.9s13.1,5.3,13.1,11.9c0,1.8-0.5,3.2-1.3,4.2C-255,269.4-247.5,279.5-247.4,291.4
			L-247.4,291.4z"/>
		<path class="st8" d="M-273.8,265.6c-0.2,0-0.3,0.1-0.5,0.1c-9.7,1.9-18.3,7.5-23.9,15.7c-3,4.4-5.6,9.7-5.6,14.8v2.8
			c0,14.4,8.3,26.7,19.9,31c0.2,0.3,0.5,0.6,0.7,0.8c0.3,0.3,0,0.8-0.4,0.8c-15.3-1-27.5-15.2-27.5-32.6v-2.8c0-15,9-27.6,21.3-31.5
			c-0.4-0.9-0.6-2.1-0.6-3.6c0-6.6,5.8-11.9,13.1-11.9c1.3,0,2.5,0.2,3.6,0.5c-5.4,1.4-9.4,6-9.4,11.4c0,0.9,0.1,1.7,0.2,2.3
			c3-0.4,6-0.4,9-0.3C-272.6,263.3-272.4,265.3-273.8,265.6L-273.8,265.6z"/>
		<path class="st9" d="M-239.4,351.4v2.7c-10.2,8.8-23.5,14.1-38,14.1c-14.5,0-27.8-5.3-38-14.1v-2.7c0-4.9,2.1-9.3,5.5-12.3
			c9.3,6.3,20.5,9.9,32.5,9.9c12,0,23.2-3.7,32.5-9.9C-241.5,342.1-239.4,346.5-239.4,351.4L-239.4,351.4z"/>
		<path class="st10" d="M-239.4,351.4v2.7c-10.2,8.8-23.5,14.1-38,14.1c-11.3,0-21.9-3.2-30.9-8.9v-8c0-3.5,1.1-6.8,3-9.5
			c8.3,4.5,17.8,7.1,27.9,7.1c12,0,23.2-3.7,32.5-9.9C-241.5,342.1-239.4,346.5-239.4,351.4z"/>
		<path class="st9" d="M-252.4,356.1v6.5c-1.5,0.7-3.1,1.4-4.7,2v-8.5c0-1.3,1.1-2.4,2.4-2.4S-252.4,354.8-252.4,356.1z
			 M-299.9,353.7c-1.3,0-2.4,1.1-2.4,2.4v6.5c1.5,0.7,3.1,1.4,4.7,2v-8.5C-297.5,354.8-298.6,353.7-299.9,353.7z"/>
		<path class="st11" d="M-251.2,331.8h-2.9c-0.9,0-1.6-0.8-1.5-1.7l1.5-15.4c0.1-0.8,0.7-1.4,1.5-1.4s1.4,0.6,1.5,1.4l1.5,15.4
			C-249.6,331-250.3,331.8-251.2,331.8L-251.2,331.8z"/>
		<path class="st5" d="M-250.3,313.4c0,1.3-1.1,2.4-2.4,2.4s-2.4-1.1-2.4-2.4c0-1.3,1.1-2.4,2.4-2.4S-250.3,312.1-250.3,313.4z"/>
	</g>
</g>
</svg>
