<?xml version="1.0" encoding="utf-8"?>
<!-- Generator: Adobe Illustrator 19.0.0, SVG Export Plug-In . SVG Version: 6.00 Build 0)  -->
<svg version="1.1" id="Layer_1" xmlns="http://www.w3.org/2000/svg" xmlns:xlink="http://www.w3.org/1999/xlink" x="0px" y="0px"
	 viewBox="-338 240.7 121.3 121.3" style="enable-background:new -338 240.7 121.3 121.3;" xml:space="preserve">
<style type="text/css">
	.st0{clip-path:url(#SVGID_2_);}
	.st1{fill:#E37969;}
	.st2{fill:#FE942A;}
	.st3{fill:#A54A3F;}
	.st4{fill:#CC635E;}
	.st5{opacity:0.45;}
	.st6{fill:#DD5F5F;}
	.st7{fill:none;}
	.st8{clip-path:url(#SVGID_4_);}
	.st9{fill:#DB402A;}
	.st10{fill:#661027;}
	.st11{fill:#E8E8E8;}
	.st12{opacity:0.5;}
	.st13{fill:#C21A3D;}
	.st14{fill:#DB8779;}
</style>
<g>
	<defs>
		<circle id="SVGID_1_" cx="-277.4" cy="301.4" r="60.6"/>
	</defs>
	<clipPath id="SVGID_2_">
		<use xlink:href="#SVGID_1_"  style="overflow:visible;"/>
	</clipPath>
	<g class="st0">
		<g transform="translate(-1.267 8.96)">
			<g transform="translate(0 64.609)">
				<path class="st1" d="M-292.7,264.9v13c0,0.7-0.5,1.3-1.1,1.5l0,0c-25.3,3.8-44.6,24.3-44.6,49.1v15.2h124.6v-15.2
					c0-24.7-19.3-45.3-44.6-49.1l0,0c-0.7-0.2-1.1-0.8-1.1-1.5v-13H-292.7z"/>
			</g>
			<g transform="translate(0 75.792)">
				<path class="st2" d="M-255.9,268.6c24.1,4.7,42.1,24.7,42.1,48.6v15.2h-124.6v-15.2c0-23.9,18.1-43.9,42.1-48.6
					c0,0-4,15.2,18.9,16.6S-255.9,268.6-255.9,268.6z"/>
			</g>
			<g transform="translate(34.425 65.913)">
				<g transform="translate(0)">
					<path class="st3" d="M-294,267.7c-2.2,3.7-7.7,7.1-14.6,8.6c-8.2,1.8-15.7,0.4-18.5-3.1v-7.8h33.1L-294,267.7z"/>
				</g>
			</g>
			<g transform="translate(23.926 5.656)">
				<path class="st1" d="M-300,245.5L-300,245.5c16.9,0,30.5,13.7,30.5,30.5v23.5c0,16.9-13.7,30.5-30.5,30.5h0
					c-16.9,0-30.5-13.7-30.5-30.5v-23.5C-330.6,259.2-316.9,245.5-300,245.5z"/>
			</g>
			<g transform="translate(69.863 36.038)">
				<g transform="translate(0)">
					<path class="st4" d="M-315.5,255.5h0.4c3.2,0,5.9,2.6,5.9,5.9l0,0v2.6c0,3.5-2.8,6.3-6.3,6.3c0,0,0,0,0,0l0,0l0,0V255.5
						L-315.5,255.5z"/>
				</g>
			</g>
			<g transform="translate(19.232 36.038)">
				<g transform="translate(0 0)">
					<path class="st4" d="M-325.8,270.3L-325.8,270.3c-3.5,0-6.3-2.8-6.3-6.3l0,0v-2.6c0-3.2,2.6-5.9,5.9-5.9c0,0,0,0,0,0h0.4l0,0
						V270.3L-325.8,270.3z"/>
				</g>
			</g>
			<g transform="translate(44.498 47.765)">
				<g transform="translate(0)">
					<path d="M-319.7,262h-1.8c-1.3,0-2.3-1-2.3-2.3c0-0.2,0.2-0.3,0.3-0.3c0.2,0,0.3,0.1,0.3,0.3c0,0.9,0.7,1.7,1.7,1.7h1.8
						c0.9,0,1.7-0.7,1.7-1.7c0-0.2,0.2-0.3,0.3-0.3c0.2,0,0.3,0.1,0.3,0.3C-317.4,261-318.5,262-319.7,262z"/>
				</g>
			</g>
			<g transform="translate(31.815 32.427)">
				<g transform="translate(3.848 7.432)">
					<ellipse cx="-325.2" cy="259.2" rx="1.5" ry="2.4"/>
				</g>
				<g transform="translate(0 0.002)">
					<path d="M-327.6,257.2c-0.2,0-0.3-0.2-0.3-0.3c0-0.1,0-0.1,0.1-0.2c2.7-2.9,7.1-3.1,10-0.4c0.1,0.1,0.1,0.3,0,0.5
						c-0.1,0.1-0.3,0.1-0.4,0c-2.6-2.4-6.7-2.2-9.1,0.4C-327.5,257.1-327.6,257.2-327.6,257.2z"/>
				</g>
				<g transform="translate(24.109 7.432)">
					<ellipse cx="-318.6" cy="259.2" rx="1.5" ry="2.4"/>
				</g>
				<g transform="translate(22.468)">
					<path d="M-310.7,257.2c-0.1,0-0.2,0-0.2-0.1c-2.4-2.6-6.5-2.9-9.1-0.5c-0.1,0.1-0.3,0.1-0.4,0c-0.1-0.1-0.1-0.3,0-0.4
						c2.9-2.6,7.4-2.4,10,0.5c0.1,0.1,0.1,0.3,0,0.4C-310.5,257.2-310.6,257.2-310.7,257.2L-310.7,257.2z"/>
				</g>
			</g>
			<g transform="translate(30.859 46.039)" class="st5">
				<g transform="translate(22.947)">
					<ellipse class="st6" cx="-314.7" cy="262.5" rx="6.1" ry="3.6"/>
				</g>
				<g transform="translate(0)">
					<ellipse class="st6" cx="-322.2" cy="262.5" rx="6.1" ry="3.6"/>
				</g>
			</g>
			<g transform="translate(18.377)">
				<path d="M-326.5,291.6c0,0-2.9-10.3-5.5-20.8s8.2-9.8,13.5-18.5c5.3-8.6,16.6-5.6,16.6-5.6s15.9-8.4,30.4,2.8
					s6.1,15.9,11.8,17.4c5.7,1.5-1.4,25.1-1.4,25.1c-0.9-0.4-2-0.5-3-0.4l0,0c-6.3,1.9-3.3-5.4-6.5-12.3c-3.2-6.9-7.1-0.3-7.4-6.3
					c-0.3-6-6.7-12.6-17.5-3.6c-11.8,9.9-22.9,4.8-22.9,4.8c0.7,3-0.1,6.1-2,8.5c-3.3,3.7,1.5,7.4-4.9,8.9L-326.5,291.6
					L-326.5,291.6z"/>
			</g>
			<g transform="translate(23.15 35.066)">
				<circle class="st7" cx="-312.7" cy="266" r="10"/>
				<circle class="st7" cx="-285.5" cy="266" r="10"/>
				<path d="M-267.7,255.8l-0.5-0.4l-6.8,8.4c-1.2-5.8-7-9.5-12.8-8.3c-4.5,0.9-7.8,4.6-8.4,9.1c-1.8-0.9-4-0.9-5.8-0.1
					c-0.8-5.9-6.3-10-12.2-9.2c-4.5,0.6-8.2,4-9.1,8.5l-7-8.5l-0.5,0.4l7.4,9c-0.7,5.9,3.5,11.3,9.4,12c5.9,0.7,11.3-3.5,12-9.4
					c0.1-0.4,0.1-0.8,0.1-1.3c0-0.3,0-0.5,0-0.8c1.8-0.9,3.9-0.8,5.7,0.1c0,0.2,0,0.5,0,0.7c0,6,4.8,10.8,10.8,10.8
					c6,0,10.8-4.8,10.8-10.8c0-0.5,0-0.9-0.1-1.4L-267.7,255.8z M-312.7,276c-5.5,0-10-4.5-10-10s4.5-10,10-10c5.5,0,10,4.5,10,10
					C-302.7,271.5-307.2,276-312.7,276L-312.7,276z M-285.5,276c-5.5,0-10-4.5-10-10s4.5-10,10-10c5.5,0,10,4.5,10,10
					C-275.5,271.5-280,276-285.5,276L-285.5,276z"/>
			</g>
			<g transform="translate(0 75.792)">
				<g>
					<defs>
						<path id="SVGID_3_" d="M-255.9,268.6c24.1,4.7,42.1,24.7,42.1,48.6v15.2h-124.6v-15.2c0-23.9,18.1-43.9,42.1-48.6
							c0,0-4,15.2,18.9,16.6S-255.9,268.6-255.9,268.6z"/>
					</defs>
					<clipPath id="SVGID_4_">
						<use xlink:href="#SVGID_3_"  style="overflow:visible;"/>
					</clipPath>
					<g class="st8">
						<g transform="translate(-0.993 1.377)" class="st5">
							<g transform="translate(7.179)">
								<g transform="translate(0 13.486)">
									<rect x="-336.4" y="273.5" width="0.7" height="44.5"/>
								</g>
								<g transform="translate(6.273 6.916)">
									<rect x="-334.3" y="271.3" width="0.7" height="53.2"/>
								</g>
								<g transform="translate(12.546 2.622)">
									<rect x="-332.3" y="269.9" width="0.7" height="58.9"/>
								</g>
								<g transform="translate(18.555)">
									<rect x="-330.3" y="269.1" width="0.7" height="62.4"/>
								</g>
								<g transform="translate(24.828 5.482)">
									<rect x="-328.2" y="270.9" width="0.7" height="55.1"/>
								</g>
								<g transform="translate(31.101 9.773)">
									<rect x="-326.2" y="272.3" width="0.7" height="49.4"/>
								</g>
								<g transform="translate(37.899 12.213)">
									<rect x="-323.9" y="273.1" width="0.7" height="46.2"/>
								</g>
								<g transform="translate(44.172 11.373)">
									<rect x="-321.9" y="272.8" width="0.7" height="47.3"/>
								</g>
								<g transform="translate(50.446 9.773)">
									<rect x="-319.8" y="272.3" width="0.7" height="49.4"/>
								</g>
								<g transform="translate(56.454 4.936)">
									<rect x="-317.8" y="270.7" width="0.7" height="55.8"/>
								</g>
								<g transform="translate(62.727 0.018)">
									<rect x="-315.8" y="269.1" width="0.7" height="62.4"/>
								</g>
								<g transform="translate(69 2.989)">
									<rect x="-313.7" y="270" width="0.7" height="58.4"/>
								</g>
								<g transform="translate(74.628 6.916)">
									<rect x="-311.9" y="271.3" width="0.7" height="53.2"/>
								</g>
								<g transform="translate(80.901 13.486)">
									<rect x="-309.8" y="273.5" width="0.7" height="44.5"/>
								</g>
							</g>
							<g transform="translate(4.586 17.604)">
								<rect x="-337.2" y="274.8" width="115.1" height="0.7"/>
							</g>
							<g transform="translate(0.383 28.979)">
								<rect x="-338.6" y="278.6" width="126.2" height="0.7"/>
							</g>
							<g transform="translate(0 40.355)">
								<rect x="-338.7" y="282.3" width="127.3" height="0.7"/>
							</g>
						</g>
					</g>
				</g>
			</g>
			<g transform="translate(28.801 75.792)">
				<path class="st9" d="M-325.1,268.6c0,8.3,9,14.8,20.2,14.8s20.2-6.5,20.2-14.8c0,0,1.6,0.3,3.8,0.9l0,0c0,9.9-10.8,17.6-24,17.6
					c-13.3,0-24-7.8-24-17.6C-329,269.5-327.5,269.1-325.1,268.6L-325.1,268.6z"/>
			</g>
			<g transform="translate(41.119 53.486)">
				<g transform="translate(0.144 0.144)">
					<path class="st10" d="M-309.9,261.3c0,4.1-3.4,7.5-7.5,7.5c-4.1,0-7.5-3.4-7.5-7.5l0,0H-309.9z"/>
				</g>
				<g transform="translate(0.144 0.144)">
					<path class="st11" d="M-324.9,262.1c0,0,0.4,1.6,7.3,1.6s7.6-1.6,7.6-1.6v-0.8h-15V262.1z"/>
				</g>
				<g transform="translate(1.522 3.197)" class="st12">
					<path class="st13" d="M-313.1,263.2c-3.7-1.1-7.6-1.1-11.3,0c1.4,1.6,3.5,2.6,5.7,2.6C-316.6,265.8-314.5,264.9-313.1,263.2z"
						/>
				</g>
				<g transform="translate(0)">
					<path class="st14" d="M-317.2,269.1c-4.2,0-7.7-3.4-7.7-7.7c0-0.1,0.1-0.2,0.2-0.2c0,0,0,0,0,0h15c0.1,0,0.2,0.1,0.2,0.2l0,0
						C-309.6,265.7-313,269.1-317.2,269.1z M-324.5,261.7c0.1,4,3.4,7.2,7.5,7.1c3.9-0.1,7-3.2,7.1-7.1H-324.5z"/>
				</g>
			</g>
		</g>
	</g>
</g>
</svg>
